{"title":"Chamillionaire - Overnight [Music Video] 720p [Sbyky]","uid":8789148,"size":61421018,"categoryP":"video","categoryS":"music_videos","magnet":"?xt=urn:btih:d8565287967dda0bd8188ff149fbf36f710b56a3&amp;dn=Chamillionaire+-+Overnight+%5BMusic+Video%5D+720p+%5BSbyky%5D&amp;tr=udp%3A%2F%2Ftracker.openbittorrent.com%3A80&amp;tr=udp%3A%2F%2Fopen.demonii.com%3A1337&amp;tr=udp%3A%2F%2Ftracker.coppersurfer.tk%3A6969&amp;tr=udp%3A%2F%2Fexodus.desync.com%3A6969","seeders":0,"leechers":2,"uploader":"Sbyky","files":-1,"time":1375896453,"description":"[IMG]http://www.shotpix.com/photos/20130807137588809151980.jpg[/IMG]\n\nGeneral\nComplete name                            : Chamillionaire - Overnight [Music Video] 720p [Sbyky].mp4\nFormat                                   : MPEG-4\nFormat profile                           : Base Media / Version 2\nCodec ID                                 : mp42\nFile size                                : 58.6 MiB\nDuration                                 : 4mn 0s\nOverall bit rate mode                    : Variable\nOverall bit rate                         : 2 047 Kbps\nEncoded date                             : UTC 2013-06-25 15:24:08\nTagged date                              : UTC 2013-06-25 15:24:08\n\nVideo\nID                                       : 1\nFormat                                   : AVC\nFormat/Info                              : Advanced Video Codec\nFormat profile                           : &lt;a class=&quot;__cf_email__&quot; href=&quot;/cdn-cgi/l/email-protection&quot; data-cfemail=&quot;7c34151b143c304f524d&quot;&gt;[email&amp;#160;protected]&lt;/a&gt;&lt;script cf-hash='f9e31' type=&quot;text/javascript&quot;&gt;\n/* &lt;![CDATA[ */!function(){try{var t=&quot;currentScript&quot;in document?document.currentScript:function(){for(var t=document.getElementsByTagName(&quot;script&quot;),e=t.length;e--;)if(t[e].getAttribute(&quot;cf-hash&quot;))return t[e]}();if(t&amp;&amp;t.previousSibling){var e,r,n,i,c=t.previousSibling,a=c.getAttribute(&quot;data-cfemail&quot;);if(a){for(e=&quot;&quot;,r=parseInt(a.substr(0,2),16),n=2;a.length-n;n+=2)i=parseInt(a.substr(n,2),16)^r,e+=String.fromCharCode(i);e=document.createTextNode(e),c.parentNode.replaceChild(e,c)}}}catch(u){}}();/* ]]&gt; */&lt;/script&gt;\nFormat settings, CABAC                   : Yes\nFormat settings, ReFrames                : 1 frame\nCodec ID                                 : avc1\nCodec ID/Info                            : Advanced Video Coding\nDuration                                 : 4mn 0s\nBit rate                                 : 1 853 Kbps\nMaximum bit rate                         : 4 692 Kbps\nWidth                                    : 1 280 pixels\nHeight                                   : 720 pixels\nDisplay aspect ratio                     : 16:9\nFrame rate mode                          : Constant\nFrame rate                               : 24.000 fps\nColor space                              : YUV\nChroma subsampling                       : 4:2:0\nBit depth                                : 8 bits\nScan type                                : Progressive\nBits/(Pixel*Frame)                       : 0.084\nStream size                              : 53.0 MiB (91%)\nTagged date                              : UTC 2013-06-25 15:24:41\n\nAudio\nID                                       : 2\nFormat                                   : AAC\nFormat/Info                              : Advanced Audio Codec\nFormat profile                           : LC\nCodec ID                                 : 40\nDuration                                 : 4mn 0s\nBit rate mode                            : Variable\nBit rate                                 : 192 Kbps\nMaximum bit rate                         : 203 Kbps\nChannel(s)                               : 2 channels\nChannel positions                        : Front: L R\nSampling rate                            : 44.1 KHz\nCompression mode                         : Lossy\nStream size                              : 5.49 MiB (9%)\nTitle                                    : IsoMedia File Produced by Google, 5-11-2011\nEncoded date                             : UTC 2013-06-25 15:24:29\nTagged date                              : UTC 2013-06-25 15:24:41\n\nShared By Sbyky\n[IMG]http://www.shotpix.com/photos/20130722137449689157289.gif[/IMG]\n[IMG]http://www.shotpix.com/photos/20130722137449694197310.gif[/IMG]","torrent":{"xt":"urn:btih:d8565287967dda0bd8188ff149fbf36f710b56a3","amp;dn":"Chamillionaire+-+Overnight+%5BMusic+Video%5D+720p+%5BSbyky%5D","amp;tr":["udp%3A%2F%2Ftracker.openbittorrent.com%3A80","udp%3A%2F%2Fopen.demonii.com%3A1337","udp%3A%2F%2Ftracker.coppersurfer.tk%3A6969","udp%3A%2F%2Fexodus.desync.com%3A6969"],"infoHash":"d8565287967dda0bd8188ff149fbf36f710b56a3","infoHashBuffer":{"type":"Buffer","data":[216,86,82,135,150,125,218,11,216,24,143,241,73,251,243,111,113,11,86,163]},"announce":[],"urlList":[]}}